# WaveFront *.obj file (generated by CINEMA 4D)

mtllib ./Cube.mtl

v -27.70903968811035 -119.22039794921875 207.46980285644531
v -27.70903968811035 119.22039794921875 207.46980285644531
v 27.70903968811035 -119.22039794921875 207.46980285644531
v 27.70903968811035 119.22039794921875 207.46980285644531
v 27.70903968811035 -119.22039794921875 -207.46980285644531
v 27.70903968811035 119.22039794921875 -207.46980285644531
v -27.70903968811035 -119.22039794921875 -207.46980285644531
v -27.70903968811035 119.22039794921875 -207.46980285644531
# 8 vertices

vn 0 0 1
vn 0 -1 0
vn 0 0 -1
vn -1 0 0
vn 0 1 0
# 5 normals

vt 0.02772635035217 0.03647994995117 0
vt 0.02772635035217 0.48895633220673 0
vt 0.13289029896259 0.48895633220673 0
vt 0.13289029896259 0.03647994995117 0
vt 0.02733434922993 0.62533921003342 0
vt 0.81474310159683 0.62533921003342 0
vt 0.81474310159683 0.52017533779144 0
vt 0.02733434922993 0.52017533779144 0
vt 0.185093998909 0.03446531295776 0
vt 0.185093998909 0.48694169521332 0
vt 0.97250264883041 0.48694169521332 0
vt 0.97250264883041 0.03446531295776 0
# 12 texture coordinates

o Cube
usemtl default
f 3/4/1 4/3/1 2/2/1 1/1/1
f 5/8/2 3/7/2 1/6/2 7/5/2
f 7/2/3 8/1/3 6/4/3 5/3/3
f 1/12/4 2/11/4 8/10/4 7/9/4
f 4/8/5 6/7/5 8/6/5 2/5/5

